<?xml version="1.0" encoding="UTF-8" standalone="no" ?>
<!DOCTYPE svg PUBLIC "-//W3C//DTD SVG 1.1//EN" "http://www.w3.org/Graphics/SVG/1.1/DTD/svg11.dtd">
<svg xmlns="http://www.w3.org/2000/svg" xmlns:xlink="http://www.w3.org/1999/xlink" version="1.1" width="1280" height="1024" viewBox="0 0 1280 1024" xml:space="preserve">
<desc>Created with Fabric.js 5.3.0</desc>
<defs>
</defs>
<g transform="matrix(1 0 0 1 640 512)" id="background-logo"  >
<rect style="stroke: none; stroke-width: 0; stroke-dasharray: none; stroke-linecap: butt; stroke-dashoffset: 0; stroke-linejoin: miter; stroke-miterlimit: 4; fill: rgb(255,255,255); fill-opacity: 0; fill-rule: nonzero; opacity: 1;"  paint-order="stroke"  x="-640" y="-512" rx="0" ry="0" width="1280" height="1024" />
</g>
<g transform="matrix(1.9211538461538462 0 0 1.9211538461538462 640.8128370838758 512.278687000186)" id="logo-logo"  >
<g style=""  paint-order="stroke"   >
		<g transform="matrix(0.06929330038134135 0 0 -0.06929330038134135 32.29760730774319 -50.06787419053816)"  >
<linearGradient id="SVGID_11_11_11_1_825011" gradientUnits="userSpaceOnUse" gradientTransform="matrix(1 0 0 1 2193.67 2450.17)"  x1="0" y1="0" x2="0" y2="366">
<stop offset="0%" style="stop-color:rgb(98,39,116);stop-opacity: 1"/>
<stop offset="100%" style="stop-color:rgb(197,51,100);stop-opacity: 1"/>
</linearGradient>
<path style="stroke: none; stroke-width: 1; stroke-dasharray: none; stroke-linecap: butt; stroke-dashoffset: 0; stroke-linejoin: miter; stroke-miterlimit: 4; fill: url(#SVGID_11_11_11_1_825011); fill-rule: nonzero; opacity: 1;"  paint-order="stroke"  transform=" translate(-2376.795, -2633.245)" d="M 2376.85 2721.16 C 2425.35 2721.16 2464.7599999999998 2681.7599999999998 2464.7599999999998 2633.25 C 2464.7599999999998 2584.73 2425.35 2545.34 2376.85 2545.34 C 2334.56 2545.34 2298.13 2576.4700000000003 2290.88 2618.38 C 2290.51 2622.56 2290.1400000000003 2626.7400000000002 2289.6800000000003 2630.83 L 2289.2100000000005 2635.5699999999997 C 2289.2100000000005 2637.0499999999997 2289.1100000000006 2638.45 2289.1100000000006 2639.85 C 2292.5500000000006 2685.2 2330.7500000000005 2721.16 2376.8500000000004 2721.16 z M 2376.85 2450.17 C 2477.7599999999998 2450.17 2559.92 2532.23 2559.92 2633.25 C 2559.92 2734.17 2477.76 2816.32 2376.85 2816.32 C 2276.29 2816.32 2194.5099999999998 2734.92 2193.67 2634.55 L 2194.04 2634.55 C 2194.04 2625.7200000000003 2195.81 2617.26 2196.09 2608.53 C 2208.36 2519.3100000000004 2284.29 2450.17 2376.8500000000004 2450.17" stroke-linecap="round" />
</g>
		<g transform="matrix(0.06929330038134135 0 0 -0.06929330038134135 -50.06475599202099 -32.304536637781354)"  >
<linearGradient id="SVGID_11_11_11_1_825012" gradientUnits="userSpaceOnUse" gradientTransform="matrix(1 0 0 1 1005.16 2193.8600000000006)"  x1="0" y1="0" x2="0" y2="366">
<stop offset="0%" style="stop-color:rgb(98,39,116);stop-opacity: 1"/>
<stop offset="100%" style="stop-color:rgb(197,51,100);stop-opacity: 1"/>
</linearGradient>
<path style="stroke: none; stroke-width: 1; stroke-dasharray: none; stroke-linecap: butt; stroke-dashoffset: 0; stroke-linejoin: miter; stroke-miterlimit: 4; fill: url(#SVGID_11_11_11_1_825012); fill-rule: nonzero; opacity: 1;"  paint-order="stroke"  transform=" translate(-1188.19, -2376.8950000000004)" d="M 1199.11 2290.51 C 1195.02 2290.3300000000004 1191.03 2289.86 1186.9299999999998 2289.4 C 1185.1699999999998 2289.4 1183.31 2289.4 1181.5399999999997 2289.31 C 1136.2899999999997 2292.65 1100.3199999999997 2330.75 1100.3199999999997 2376.85 C 1100.3199999999997 2425.2599999999998 1139.7299999999998 2464.7599999999998 1188.1399999999996 2464.7599999999998 C 1236.6599999999996 2464.7599999999998 1276.0499999999997 2425.2599999999998 1276.0499999999997 2376.85 C 1276.0499999999997 2332.7999999999997 1243.1599999999996 2296.0899999999997 1199.1099999999997 2290.5099999999998 z M 1188.1399999999999 2559.9300000000003 C 1087.2199999999998 2559.9300000000003 1005.1599999999999 2477.7700000000004 1005.1599999999999 2376.8500000000004 C 1005.1599999999999 2276.2900000000004 1086.57 2194.6000000000004 1186.84 2193.8600000000006 L 1186.84 2194.0500000000006 C 1193.6299999999999 2194.0500000000006 1200.1299999999999 2195.4400000000005 1206.82 2195.6300000000006 C 1298.83 2205.1100000000006 1371.22 2282.2400000000007 1371.22 2376.8500000000004 C 1371.22 2477.7700000000004 1289.07 2559.9300000000003 1188.14 2559.9300000000003" stroke-linecap="round" />
</g>
		<g transform="matrix(0.06929330038134135 0 0 -0.06929330038134135 -32.30107197276226 50.061637793503905)"  >
<linearGradient id="SVGID_11_11_11_1_825013" gradientUnits="userSpaceOnUse" gradientTransform="matrix(1 0 0 1 1261.56 1005.1599999999999)"  x1="0" y1="0" x2="0" y2="366">
<stop offset="0%" style="stop-color:rgb(98,39,116);stop-opacity: 1"/>
<stop offset="100%" style="stop-color:rgb(197,51,100);stop-opacity: 1"/>
</linearGradient>
<path style="stroke: none; stroke-width: 1; stroke-dasharray: none; stroke-linecap: butt; stroke-dashoffset: 0; stroke-linejoin: miter; stroke-miterlimit: 4; fill: url(#SVGID_11_11_11_1_825013); fill-rule: nonzero; opacity: 1;"  paint-order="stroke"  transform=" translate(-1444.545, -1188.235)" d="M 1444.73 1100.33 C 1396.22 1100.33 1356.72 1139.73 1356.72 1188.24 C 1356.72 1236.65 1396.22 1276.16 1444.73 1276.16 C 1488.04 1276.16 1524.65 1243.72 1530.69 1200.3200000000002 C 1530.97 1196.3200000000002 1531.3400000000001 1192.42 1531.81 1188.42 C 1531.81 1185.91 1531.8999999999999 1183.5 1532.08 1180.99 C 1528.28 1135.92 1490.4499999999998 1100.33 1444.73 1100.33 z M 1444.73 1371.31 C 1343.71 1371.31 1261.56 1289.1599999999999 1261.56 1188.24 C 1261.56 1087.22 1343.71 1005.16 1444.73 1005.16 C 1545.1 1005.16 1626.69 1086.58 1627.53 1186.85 L 1627.25 1186.85 C 1627.25 1194.37 1625.76 1201.53 1625.48 1208.9599999999998 C 1615.08 1300.0299999999997 1538.5 1371.3099999999997 1444.73 1371.3099999999997" stroke-linecap="round" />
</g>
		<g transform="matrix(0.06929330038134135 0 0 -0.06929330038134135 50.06475599202099 32.29760730774319)"  >
<linearGradient id="SVGID_11_11_11_1_825014" gradientUnits="userSpaceOnUse" gradientTransform="matrix(1 0 0 1 2450.169999999999 1261.5700000000002)"  x1="0" y1="0" x2="0" y2="366">
<stop offset="0%" style="stop-color:rgb(98,39,116);stop-opacity: 1"/>
<stop offset="100%" style="stop-color:rgb(197,51,100);stop-opacity: 1"/>
</linearGradient>
<path style="stroke: none; stroke-width: 1; stroke-dasharray: none; stroke-linecap: butt; stroke-dashoffset: 0; stroke-linejoin: miter; stroke-miterlimit: 4; fill: url(#SVGID_11_11_11_1_825014); fill-rule: nonzero; opacity: 1;"  paint-order="stroke"  transform=" translate(-2633.1999999999994, -1444.5950000000003)" d="M 2622.37 1530.97 C 2626.2799999999997 1531.25 2630.27 1531.6200000000001 2634.27 1532.09 C 2636.12 1532.09 2637.98 1532.09 2639.75 1532.1799999999998 C 2685.1 1528.84 2721.06 1490.7399999999998 2721.06 1444.6399999999999 C 2721.06 1396.1299999999999 2681.66 1356.7199999999998 2633.24 1356.7199999999998 C 2584.74 1356.7199999999998 2545.33 1396.1299999999999 2545.33 1444.6399999999999 C 2545.33 1488.6799999999998 2578.3199999999997 1525.3899999999999 2622.37 1530.9699999999998 z M 2633.24 1261.5700000000002 C 2734.1699999999996 1261.5700000000002 2816.2299999999996 1343.63 2816.2299999999996 1444.64 C 2816.2299999999996 1545.1000000000001 2734.8099999999995 1626.88 2634.5399999999995 1627.6200000000001 L 2634.5399999999995 1627.43 C 2627.8499999999995 1627.43 2621.3499999999995 1626.05 2614.6599999999994 1625.8500000000001 C 2522.5599999999995 1616.38 2450.169999999999 1539.2400000000002 2450.169999999999 1444.64 C 2450.169999999999 1343.63 2532.309999999999 1261.5700000000002 2633.2399999999993 1261.5700000000002" stroke-linecap="round" />
</g>
		<g transform="matrix(0.06929330038134135 0 0 -0.06929330038134135 -20.47790259519593 104.05078520597195)"  >
<linearGradient id="SVGID_11_11_11_1_825015" gradientUnits="userSpaceOnUse" gradientTransform="matrix(1 0 0 1 1432.0900000000001 226.19899999999996)"  x1="0" y1="0" x2="0" y2="366">
<stop offset="0%" style="stop-color:rgb(98,39,116);stop-opacity: 1"/>
<stop offset="100%" style="stop-color:rgb(197,51,100);stop-opacity: 1"/>
</linearGradient>
<path style="stroke: none; stroke-width: 1; stroke-dasharray: none; stroke-linecap: butt; stroke-dashoffset: 0; stroke-linejoin: miter; stroke-miterlimit: 4; fill: url(#SVGID_11_11_11_1_825015); fill-rule: nonzero; opacity: 1;"  paint-order="stroke"  transform=" translate(-1615.17, -409.09549999999996)" d="M 1634.87 323.602 C 1630.5 323.22999999999996 1626.2299999999998 322.852 1621.9499999999998 322.39099999999996 C 1618.61 322.01199999999994 1615.35 321.551 1612.0099999999998 321.359 C 1565.1699999999998 323.12899999999996 1527.2599999999998 362.05899999999997 1527.2599999999998 408.90999999999997 C 1527.2599999999998 457.42199999999997 1566.6599999999999 496.81999999999994 1615.1699999999998 496.81999999999994 C 1663.6799999999998 496.81999999999994 1703.08 457.4219999999999 1703.08 408.90999999999997 C 1703.08 368.01199999999994 1674.6399999999999 332.69899999999996 1634.87 323.602 z M 1615.1699999999998 591.992 C 1514.2399999999998 591.992 1432.09 509.832 1432.09 408.90999999999997 C 1432.09 309.28099999999995 1512.1999999999998 228.33199999999997 1611.36 226.19899999999996 C 1623.62 226.28899999999996 1635.4299999999998 228.53099999999995 1647.51 229.17199999999997 C 1733.01 244.51199999999997 1798.25 319.12899999999996 1798.25 408.90999999999997 C 1798.25 509.832 1716.09 591.992 1615.17 591.992" stroke-linecap="round" />
</g>
		<g transform="matrix(0.06929330038134135 0 0 -0.06929330038134135 20.47790259519593 -104.05116631912406)"  >
<linearGradient id="SVGID_11_11_11_1_825016" gradientUnits="userSpaceOnUse" gradientTransform="matrix(1 0 0 1 2023.1400000000003 3229.41)"  x1="0" y1="0" x2="0" y2="366">
<stop offset="0%" style="stop-color:rgb(98,39,116);stop-opacity: 1"/>
<stop offset="100%" style="stop-color:rgb(197,51,100);stop-opacity: 1"/>
</linearGradient>
<path style="stroke: none; stroke-width: 1; stroke-dasharray: none; stroke-linecap: butt; stroke-dashoffset: 0; stroke-linejoin: miter; stroke-miterlimit: 4; fill: url(#SVGID_11_11_11_1_825016); fill-rule: nonzero; opacity: 1;"  paint-order="stroke"  transform=" translate(-2206.2200000000003, -3412.3)" d="M 2186.8 3497.8 C 2191.07 3498.17 2195.25 3498.6400000000003 2199.3500000000004 3499.1000000000004 C 2202.9700000000003 3499.4700000000003 2206.59 3500.03 2210.3100000000004 3500.03 C 2255.4800000000005 3499.1000000000004 2294.1300000000006 3459.7900000000004 2294.1300000000006 3412.48 C 2294.1300000000006 3364.07 2254.7300000000005 3324.57 2206.2200000000007 3324.57 C 2157.7100000000005 3324.57 2118.310000000001 3364.07 2118.310000000001 3412.48 C 2118.310000000001 3453.56 2146.920000000001 3488.88 2186.8000000000006 3497.8 z M 2206.2200000000003 3229.4100000000003 C 2307.1400000000003 3229.4100000000003 2389.3 3311.5600000000004 2389.3 3412.4800000000005 C 2389.3 3512.2000000000003 2309.09 3593.1500000000005 2209.9300000000003 3595.1900000000005 C 2197.8500000000004 3595.1900000000005 2186.1400000000003 3592.9600000000005 2174.1600000000003 3592.3100000000004 C 2088.5600000000004 3577.0700000000006 2023.1400000000003 3502.5400000000004 2023.1400000000003 3412.4800000000005 C 2023.1400000000003 3311.5600000000004 2105.2900000000004 3229.4100000000003 2206.2200000000003 3229.4100000000003" stroke-linecap="round" />
</g>
		<g transform="matrix(0.06929330038134135 0 0 -0.06929330038134135 0 0)"  >
<linearGradient id="SVGID_11_11_11_1_825017" gradientUnits="userSpaceOnUse" gradientTransform="matrix(1 0 0 1 0 0)"  x1="0" y1="0" x2="0" y2="366">
<stop offset="0%" style="stop-color:rgb(98,39,116);stop-opacity: 1"/>
<stop offset="100%" style="stop-color:rgb(197,51,100);stop-opacity: 1"/>
</linearGradient>
<path style="stroke: none; stroke-width: 1; stroke-dasharray: none; stroke-linecap: butt; stroke-dashoffset: 0; stroke-linejoin: miter; stroke-miterlimit: 4; fill: url(#SVGID_11_11_11_1_825017); fill-rule: nonzero; opacity: 1;"  paint-order="stroke"  transform=" translate(-1910.6950000000002, -1910.6950000000002)" d="M 2590.21 228.332 C 2604.9 227.41 2619.58 226.10899999999998 2634.54 226.10899999999998 L 2634.54 130.94099999999997 C 2554.5299999999997 130.94099999999997 2477.3 143.12099999999998 2404.36 165.24199999999996 C 2247.11 120.62899999999996 2081.9700000000003 95.17189999999997 1910.69 95.17189999999997 C 1149.85 95.17189999999997 497.93399999999997 566.1519999999999 228.24199999999996 1231.3600000000001 C 227.31299999999996 1216.5900000000001 226.01199999999997 1201.9 226.01199999999997 1186.8500000000001 L 130.85199999999998 1186.8500000000001 C 130.85199999999998 1266.96 143.02299999999997 1344.2700000000002 165.14099999999996 1417.2200000000003 C 120.62499999999997 1574.3700000000003 95.16409999999996 1739.5100000000002 95.16409999999996 1910.7000000000003 C 95.16409999999996 2671.5400000000004 566.055 3323.46 1231.26 3593.1500000000005 C 1216.49 3594.0800000000004 1201.81 3595.3800000000006 1186.84 3595.3800000000006 L 1186.84 3690.5400000000004 C 1266.9499999999998 3690.5400000000004 1344.1799999999998 3678.3700000000003 1417.1299999999999 3656.2500000000005 C 1574.28 3700.7700000000004 1739.4199999999998 3726.2200000000003 1910.6899999999998 3726.2200000000003 C 2671.5299999999997 3726.2200000000003 3323.46 3255.25 3593.14 2590.03 C 3594.0699999999997 2604.8100000000004 3595.37 2619.5 3595.37 2634.55 L 3690.54 2634.55 C 3690.54 2554.44 3678.36 2477.21 3656.25 2404.26 C 3700.76 2247.11 3726.22 2081.9700000000003 3726.22 1910.7000000000003 C 3726.22 1149.9500000000003 3255.33 498.0310000000002 2590.21 228.33200000000033 z M 3755.13 2403.8 C 3774.82 2476.94 3785.05 2552.02 3785.7000000000003 2627.3900000000003 C 3785.8900000000003 2629.8100000000004 3785.9800000000005 2632.13 3785.9800000000005 2634.55 C 3785.9800000000005 2687.15 3743.6000000000004 2729.71 3691.0100000000007 2729.71 L 3690.540000000001 2729.71 L 3635.620000000001 2729.71 C 3319.1800000000007 3396.5 2653.880000000001 3821.3900000000003 1910.6900000000007 3821.3900000000003 C 1747.1300000000008 3821.3900000000003 1581.3400000000006 3799.09 1417.5900000000006 3755.13 C 1342.0400000000006 3775.3900000000003 1264.5300000000007 3785.71 1186.8400000000006 3785.71 C 1134.2400000000007 3785.71 1091.6800000000005 3743.05 1091.6800000000005 3690.54 L 1091.6800000000005 3635.71 C 424.887 3319.28 0 2653.97 0 1910.7 C 0 1747.13 22.3047 1581.44 66.2617 1417.69 C 46 1342.13 35.6836 1264.63 35.6836 1186.85 C 35.6836 1134.34 78.2539 1091.6799999999998 130.852 1091.6799999999998 L 185.68 1091.6799999999998 C 502.207 424.891 1167.42 0 1910.69 0 C 2074.26 0 2240.05 22.3086 2403.89 66.3594 C 2479.35 46.10159999999999 2556.7599999999998 35.781299999999995 2634.54 35.781299999999995 C 2687.15 35.781299999999995 2729.71 78.44139999999999 2729.71 130.941 L 2729.71 185.691 C 3396.5 502.211 3821.3900000000003 1167.43 3821.3900000000003 1910.7 C 3821.3900000000003 2074.26 3799.0800000000004 2239.95 3755.13 2403.8" stroke-linecap="round" />
</g>
		<g transform="matrix(0.06929330038134135 0 0 -0.06929330038134135 -0.0000692933003847429 -0.0000692933003563212)"  >
<linearGradient id="SVGID_11_11_11_1_825018" gradientUnits="userSpaceOnUse" gradientTransform="matrix(1 0 0 1 190.32799999999997 190.3320000000001)"  x1="0" y1="0" x2="0" y2="366">
<stop offset="0%" style="stop-color:rgb(98,39,116);stop-opacity: 1"/>
<stop offset="100%" style="stop-color:rgb(197,51,100);stop-opacity: 1"/>
</linearGradient>
<path style="stroke: none; stroke-width: 1; stroke-dasharray: none; stroke-linecap: butt; stroke-dashoffset: 0; stroke-linejoin: miter; stroke-miterlimit: 4; fill: url(#SVGID_11_11_11_1_825018); fill-rule: nonzero; opacity: 1;"  paint-order="stroke"  transform=" translate(-1910.6939999999997, -1910.6959999999995)" d="M 3169.65 1331.73 C 3229.87 1280.05 3306.63 1247.25 3390.7400000000002 1242.33 C 3202.8300000000004 827.012 2847.4500000000003 506.39099999999996 2410.76 364.8589999999999 C 2382.98 375.9099999999999 2356.3100000000004 388.92999999999995 2330.84 403.69899999999996 C 2385.58 479.15999999999997 2427.96 562.809 2456.67 650.809 C 2838.54 652.5699999999999 3150.69 954.141 3169.65 1331.73 z M 2358.63 1408.49 L 2358.63 1408.58 C 2357.05 1420.48 2355.01 1432.28 2355.01 1444.6399999999999 C 2355.01 1495.29 2369.69 1542.31 2393.48 1583.29 C 2370.71 1574.84 2348.68 1564.43 2326.66 1553.83 C 2307.6099999999997 1544.26 2288.8399999999997 1533.9499999999998 2270.3399999999997 1522.8799999999999 C 2253.8999999999996 1513.04 2237.0699999999997 1504.03 2221.37 1492.4999999999998 L 2165.0499999999997 1569.2599999999998 C 2241.8999999999996 1625.5799999999997 2327.4999999999995 1664.6099999999997 2417.3599999999997 1689.6999999999998 C 2434.74 1694.7199999999998 2452.2999999999997 1699.2699999999998 2470.0599999999995 1703.08 C 2483.8999999999996 1705.87 2497.7399999999993 1708.75 2511.7799999999993 1710.8899999999999 C 2545.609999999999 1716.1799999999998 2579.7999999999993 1720.1899999999998 2614.5599999999995 1721.02 C 2620.8899999999994 1721.49 2626.8399999999997 1722.8799999999999 2633.2399999999993 1722.8799999999999 C 2650.3399999999992 1722.8799999999999 2666.879999999999 1720.83 2683.149999999999 1717.86 C 2688.2599999999993 1716.9299999999998 2693.099999999999 1715.7299999999998 2698.119999999999 1714.51 C 2709.3599999999988 1711.73 2720.419999999999 1708.29 2731.099999999999 1704.2 C 2736.209999999999 1702.25 2741.329999999999 1700.5800000000002 2746.249999999999 1698.3400000000001 C 2759.629999999999 1692.3100000000002 2772.649999999999 1685.42 2784.809999999999 1677.43 C 2790.859999999999 1673.44 2796.149999999999 1668.79 2801.829999999999 1664.43 C 2808.139999999999 1659.5 2814.279999999999 1654.67 2820.129999999999 1649.28 C 2826.6399999999994 1643.42 2832.6799999999994 1637.2 2838.539999999999 1630.69 C 2842.529999999999 1626.3200000000002 2846.149999999999 1621.77 2849.779999999999 1617.1200000000001 C 2887.699999999999 1569.5400000000002 2911.3999999999987 1510.0600000000002 2911.3999999999987 1444.64 C 2911.3999999999987 1361.1000000000001 2873.659999999999 1287.02 2815.299999999999 1235.91 C 2811.3999999999987 1232.5700000000002 2807.489999999999 1229.41 2803.4999999999986 1226.24 C 2796.339999999999 1220.68 2789.3799999999987 1215.09 2781.6599999999985 1210.17 C 2770.1399999999985 1202.74 2758.0599999999986 1196.14 2745.4099999999985 1190.47 C 2740.6699999999987 1188.33 2735.5699999999983 1186.75 2730.6299999999983 1184.9 C 2719.849999999998 1180.8000000000002 2708.8999999999983 1177.3700000000001 2697.5499999999984 1174.67 C 2692.6299999999983 1173.46 2687.789999999998 1172.26 2682.769999999998 1171.42 C 2666.699999999998 1168.44 2650.249999999998 1166.4 2633.239999999998 1166.4 C 2614.469999999998 1166.4 2596.159999999998 1168.3500000000001 2578.419999999998 1171.88 C 2564.0999999999976 1174.7600000000002 2550.439999999998 1179.5900000000001 2537.0599999999977 1184.5200000000002 C 2534.0799999999977 1185.64 2530.8299999999977 1186.1900000000003 2527.9499999999975 1187.4100000000003 C 2437.4299999999976 1224.5700000000004 2371.8299999999977 1308.3000000000004 2358.6299999999974 1408.4900000000002 z M 2371.17 1913.58 C 2428.52 1871.85 2490.6800000000003 1837.56 2555.9300000000003 1810.79 C 2470.15 1803.45 2386.6900000000005 1784.21 2307.2400000000002 1752.8899999999999 C 2321.1800000000003 1809.9499999999998 2342.36 1864.1299999999999 2371.17 1913.58 z M 2885.09 1743.61 L 2885.09 1718.51 C 2874.78 1727.99 2863.9900000000002 1736.91 2852.6600000000003 1745.28 C 2863.4400000000005 1744.72 2874.2200000000003 1743.79 2885.09 1743.61 z M 2500.54 938.809 C 2499.79 995.309 2493.56 1050.51 2482.7 1104.1299999999999 C 2528.8799999999997 1083.6 2579.5299999999997 1071.2299999999998 2633.24 1071.2299999999998 C 2692.72 1071.2299999999998 2748.2 1086.4799999999998 2798.1099999999997 1111.2899999999997 C 2728.22 1017.7099999999997 2622.6499999999996 952.1909999999998 2500.5399999999995 938.8089999999997 z M 2122.12 605.461 C 2112.92 620.141 2104.37 635.289 2096.38 650.809 L 2147.12 650.809 C 2139.4 635.199 2131.04 620.0509999999999 2122.12 605.461 z M 2010.78 1722.13 C 1922.03 1767.1100000000001 1824.73 1797.69 1722.04 1810.7 C 1767.02 1899.45 1797.5 1996.66 1810.51 2099.35 C 1899.26 2054.37 1996.56 2023.79 2099.26 2010.78 C 2054.3700000000003 1922.03 2023.7900000000002 1824.83 2010.7800000000002 1722.13 z M 1642.95 1530.0400000000002 C 1643.14 1529.5800000000002 1643.3300000000002 1529.1100000000001 1643.52 1528.65 C 1662.47 1488.6000000000001 1677.52 1447.15 1689.42 1404.5 C 1694.25 1387.58 1698.72 1370.57 1702.43 1353.28 C 1705.41 1339.25 1708.19 1325.32 1710.42 1311.1 C 1715.72 1277.4499999999998 1719.72 1243.53 1720.64 1209.06 C 1721.21 1202 1722.7800000000002 1195.31 1722.7800000000002 1188.24 C 1722.7800000000002 1171.05 1720.7400000000002 1154.51 1717.7600000000002 1138.24 C 1716.8400000000001 1133.23 1715.63 1128.39 1714.4200000000003 1123.47 C 1711.6300000000003 1112.03 1708.1900000000003 1100.88 1704.0100000000002 1090.01 C 1702.1500000000003 1085.08 1700.4800000000002 1080.16 1698.3400000000001 1075.33 C 1692.3000000000002 1061.76 1685.3300000000002 1048.6599999999999 1677.15 1036.3899999999999 C 1673.5300000000002 1030.7199999999998 1669.16 1025.79 1665.0700000000002 1020.4899999999999 C 1659.9600000000003 1013.7099999999999 1654.66 1007.1099999999999 1648.9 1000.8899999999999 C 1643.23 994.6599999999999 1637.2900000000002 988.8009999999998 1631.0600000000002 983.1409999999998 C 1626.3200000000002 978.8589999999998 1621.4 974.9489999999998 1616.38 971.0589999999999 C 1599.8300000000002 957.8519999999999 1581.99 946.3319999999999 1562.66 937.2299999999999 C 1562.1000000000001 936.949 1561.5500000000002 936.5819999999999 1560.99 936.3009999999999 C 1525.49 919.852 1486.3600000000001 909.9879999999999 1444.73 909.9879999999999 C 1399.66 909.9879999999999 1357.74 921.7109999999999 1320.01 940.852 L 1319.92 940.949 C 1287.8600000000001 957.1089999999999 1259.6100000000001 979.141 1236.19 1005.9 C 1232.66 1009.9 1229.31 1013.99 1226.06 1018.18 C 1220.58 1025.1399999999999 1215.09 1032.11 1210.26 1039.6399999999999 C 1202.83 1051.1699999999998 1196.23 1063.33 1190.47 1075.9799999999998 C 1188.33 1080.8099999999997 1186.84 1085.8199999999997 1184.98 1090.6599999999999 C 1180.89 1101.4399999999998 1177.3600000000001 1112.4899999999998 1174.67 1123.84 C 1173.46 1128.76 1172.3400000000001 1133.6 1171.42 1138.62 C 1168.44 1154.78 1166.4 1171.2299999999998 1166.4 1188.2399999999998 C 1166.4 1207.0099999999998 1168.3500000000001 1225.3199999999997 1171.97 1243.0699999999997 C 1174.76 1256.9199999999996 1179.41 1269.9299999999996 1184.15 1282.9299999999996 C 1185.45 1286.4699999999996 1186.01 1290.2799999999995 1187.49 1293.7099999999996 C 1224.67 1384.0499999999995 1308.31 1449.5599999999995 1408.39 1462.7599999999995 C 1420.38 1464.3399999999995 1432.2800000000002 1466.4799999999996 1444.73 1466.4799999999996 C 1495.38 1466.4799999999996 1542.22 1451.7899999999995 1583.2 1428.0999999999995 C 1574.8300000000002 1450.8599999999994 1564.3400000000001 1472.8899999999994 1553.8300000000002 1494.9199999999994 C 1544.17 1513.9699999999993 1533.95 1532.8399999999995 1522.7900000000002 1551.2299999999993 C 1512.9400000000003 1567.6799999999994 1503.9300000000003 1584.5099999999993 1492.5000000000002 1600.1099999999994 L 1569.2600000000002 1656.3399999999995 C 1598.4400000000003 1616.4699999999996 1622.0500000000002 1573.8099999999995 1642.9500000000003 1530.0399999999995 z M 1743.6 936.301 L 1718.32 936.301 C 1727.8999999999999 946.609 1736.9099999999999 957.402 1745.1799999999998 968.82 C 1744.7199999999998 957.9490000000001 1743.6899999999998 947.172 1743.6 936.301 z M 1913.57 1450.31 C 1871.85 1392.79 1837.46 1330.52 1810.61 1265.19 C 1803.26 1351.24 1784.03 1434.79 1752.8999999999999 1514.25 C 1809.86 1500.31 1864.1399999999999 1479.11 1913.57 1450.31 z M 2122.02 1249.11 C 2179.37 1158.2199999999998 2213.28 1051.07 2215.05 936.3009999999999 L 2029.0900000000001 936.3009999999999 C 2030.8600000000001 1047.26 2063.29 1155.72 2122.02 1249.11 z M 938.8050000000001 1320.9499999999998 C 995.398 1321.6899999999998 1050.6100000000001 1327.9099999999999 1104.13 1338.8799999999999 C 1083.5900000000001 1292.6 1071.24 1241.9599999999998 1071.24 1188.2399999999998 C 1071.24 1128.7599999999998 1086.47 1073.1899999999998 1111.38 1023.2799999999997 C 1017.7100000000002 1093.1699999999998 952.1880000000001 1198.8299999999997 938.8050000000001 1320.9499999999998 z M 1331.72 651.742 C 1280.05 591.52 1247.25 514.762 1242.42 430.64799999999997 C 826.9140000000001 618.559 506.30100000000004 974.031 364.855 1410.72 C 375.91400000000004 1438.51 388.92600000000004 1465.18 403.699 1490.55 C 479.16 1435.81 562.703 1393.53 650.8050000000001 1364.81 C 652.5740000000001 982.949 954.1410000000001 670.699 1331.72 651.742 z M 650.805 1725.01 L 650.805 1674.37 C 635.1949999999999 1682.08 620.0509999999999 1690.35 605.4609999999999 1699.27 C 620.137 1708.47 635.2889999999999 1717.12 650.805 1725.01 z M 1529.85 2178.34 C 1529.58 2178.25 1529.3899999999999 2178.1600000000003 1529.11 2178.06 C 1488.78 2158.92 1447.05 2143.77 1404.2099999999998 2131.7799999999997 C 1386.6499999999999 2126.7699999999995 1369.0799999999997 2122.2099999999996 1351.2399999999998 2118.3999999999996 C 1337.3899999999999 2115.5199999999995 1323.6399999999999 2112.7299999999996 1309.5999999999997 2110.5899999999997 C 1275.6799999999996 2105.2 1241.4799999999996 2101.2999999999997 1206.7299999999996 2100.4599999999996 C 1200.4999999999995 2099.9999999999995 1194.5599999999995 2098.6099999999997 1188.1399999999996 2098.6099999999997 C 1171.0399999999997 2098.6099999999997 1154.4099999999996 2100.6499999999996 1138.2399999999996 2103.6299999999997 C 1133.1299999999997 2104.5499999999997 1128.2999999999995 2105.7599999999998 1123.3699999999997 2106.97 C 1111.9399999999996 2109.7599999999998 1100.9699999999996 2113.2 1090.1899999999996 2117.2799999999997 C 1085.1799999999996 2119.24 1080.0599999999995 2120.91 1075.2299999999996 2123.0499999999997 C 1061.7599999999995 2129.18 1048.7499999999995 2136.06 1036.5699999999995 2144.14 C 1030.6299999999994 2147.95 1025.3199999999995 2152.6 1019.7499999999994 2156.87 C 1013.4299999999994 2161.7999999999997 1007.1099999999994 2166.73 1001.1599999999994 2172.21 C 994.7499999999994 2178.16 988.7109999999994 2184.29 982.8549999999994 2190.7 C 978.8549999999994 2195.0699999999997 975.2339999999995 2199.72 971.6089999999995 2204.3599999999997 C 933.6049999999994 2251.95 909.9959999999994 2311.4199999999996 909.9959999999994 2376.8499999999995 C 909.9959999999994 2460.2999999999993 947.7269999999994 2534.4599999999996 1006.0899999999995 2585.4799999999996 C 1009.9899999999994 2588.9199999999996 1013.8999999999994 2592.0799999999995 1017.8899999999994 2595.24 C 1025.0499999999995 2600.81 1032.0199999999995 2606.39 1039.7299999999993 2611.22 C 1051.2499999999993 2618.66 1063.3299999999992 2625.2599999999998 1075.9799999999993 2630.9199999999996 C 1080.7099999999994 2633.0599999999995 1085.8299999999992 2634.6399999999994 1090.7499999999993 2636.4999999999995 C 1101.5299999999993 2640.5899999999997 1112.4999999999993 2644.0299999999997 1123.8299999999992 2646.8099999999995 C 1128.7599999999993 2648.0199999999995 1133.5899999999992 2649.1399999999994 1138.6099999999992 2650.0699999999997 C 1154.6899999999991 2653.0399999999995 1171.1399999999992 2655.0899999999997 1188.1399999999992 2655.0899999999997 C 1206.9099999999992 2655.0899999999997 1225.2199999999991 2653.1299999999997 1242.9699999999991 2649.5099999999998 C 1257.289999999999 2646.6299999999997 1270.9499999999991 2641.89 1284.329999999999 2636.87 C 1287.299999999999 2635.7599999999998 1290.559999999999 2635.29 1293.439999999999 2634.0899999999997 C 1383.949999999999 2596.91 1449.559999999999 2513.18 1462.7599999999989 2412.8999999999996 L 1462.7599999999989 2412.8999999999996 C 1464.3399999999988 2401.0099999999998 1466.3799999999987 2389.2099999999996 1466.3799999999987 2376.8499999999995 C 1466.3799999999987 2326.1099999999997 1451.7899999999988 2279.1699999999996 1427.9999999999986 2238.1899999999996 C 1450.7699999999986 2246.5599999999995 1472.7899999999986 2257.0499999999997 1494.7299999999987 2267.5599999999995 C 1513.7799999999986 2277.2199999999993 1532.6499999999987 2287.5399999999995 1551.0399999999986 2298.5999999999995 C 1567.4999999999986 2308.4499999999994 1584.3199999999986 2317.4599999999996 1600.0199999999986 2328.8899999999994 L 1656.3399999999986 2252.129999999999 C 1616.3799999999985 2222.9499999999994 1573.7199999999984 2199.249999999999 1529.8499999999985 2178.3399999999992 z M 1450.12 1907.91 C 1392.6899999999998 1949.5400000000002 1330.52 1983.93 1265.28 2010.69 C 1351.15 2018.03 1434.6 2037.27 1514.06 2068.4900000000002 C 1500.12 2011.5300000000002 1478.9299999999998 1957.3500000000001 1450.12 1907.9100000000003 z M 936.3009999999999 2077.79 L 936.3009999999999 2102.97 C 946.6089999999999 2093.49 957.395 2084.48 968.7299999999999 2076.2099999999996 C 957.949 2076.6699999999996 947.1679999999999 2077.6999999999994 936.3009999999999 2077.7899999999995 z M 1320.85 2882.59 C 1321.59 2826.08 1327.82 2770.88 1338.6899999999998 2717.3500000000004 C 1292.4999999999998 2737.8900000000003 1241.86 2750.2500000000005 1188.1399999999999 2750.2500000000005 C 1128.6699999999998 2750.2500000000005 1073.28 2735.0100000000007 1023.2799999999999 2710.1900000000005 C 1093.2599999999998 2803.7800000000007 1198.83 2869.2000000000007 1320.85 2882.5900000000006 z M 1364.7199999999998 3170.6800000000003 C 982.9489999999998 3168.82 670.6909999999998 2867.2500000000005 651.7379999999998 2489.76 C 591.5159999999998 2541.4300000000003 514.7579999999998 2574.23 430.6479999999998 2579.07 C 618.5589999999997 2994.38 974.0269999999998 3315 1410.7199999999998 3456.63 C 1438.4099999999999 3445.57 1465.0799999999997 3432.56 1490.5499999999997 3417.79 C 1435.7099999999998 3342.23 1393.4299999999998 3258.68 1364.7199999999998 3170.68 z M 936.301 1606.44 L 936.301 1792.3000000000002 C 1047.26 1790.5300000000002 1155.6200000000001 1758.1000000000001 1248.92 1699.4600000000003 C 1158.13 1642.1200000000003 1051.0700000000002 1608.2000000000003 936.301 1606.4400000000003 z M 1699.27 3216.0299999999997 C 1708.47 3201.3399999999997 1717.02 3186.2 1725.01 3170.68 L 1674.27 3170.68 C 1681.99 3186.29 1690.35 3201.44 1699.27 3216.0299999999997 z M 2132.62 2414.95 C 2127.7 2431.8599999999997 2123.23 2448.77 2119.5099999999998 2465.97 C 2116.54 2479.72 2113.7499999999995 2493.47 2111.52 2507.4199999999996 C 2106.13 2540.6899999999996 2102.04 2574.3299999999995 2100.93 2608.5299999999997 C 2100.19 2616.7999999999997 2098.4199999999996 2624.79 2098.4199999999996 2633.2499999999995 C 2098.4199999999996 2650.3499999999995 2100.4599999999996 2666.9799999999996 2103.4399999999996 2683.2499999999995 C 2104.3699999999994 2688.2599999999998 2105.6599999999994 2693.0899999999997 2106.7799999999997 2698.0199999999995 C 2109.5699999999997 2709.4499999999994 2113.0099999999998 2720.5099999999993 2117.1899999999996 2731.2899999999995 C 2119.0499999999997 2736.3099999999995 2120.72 2741.3299999999995 2122.95 2746.1599999999994 C 2128.99 2759.7299999999996 2135.97 2772.7399999999993 2144.0499999999997 2784.9999999999995 C 2147.7599999999998 2790.7599999999998 2152.31 2795.8799999999997 2156.4999999999995 2801.3599999999997 C 2161.5099999999998 2807.8599999999997 2166.6299999999997 2814.37 2172.2099999999996 2820.41 C 2178.0599999999995 2826.73 2184.0999999999995 2832.68 2190.4199999999996 2838.54 C 2194.97 2842.54 2199.72 2846.25 2204.45 2850.06 C 2252.0299999999997 2887.88 2311.4199999999996 2911.49 2376.85 2911.49 C 2460.29 2911.49 2534.45 2873.75 2585.48 2815.39 C 2588.92 2811.49 2592.17 2807.49 2595.33 2803.41 C 2600.91 2796.3399999999997 2606.47 2789.37 2611.31 2781.75 C 2618.75 2770.23 2625.34 2758.15 2631.02 2745.51 C 2633.15 2740.6800000000003 2634.64 2735.6600000000003 2636.49 2730.6400000000003 C 2640.6699999999996 2719.9500000000003 2644.12 2708.8900000000003 2646.8199999999997 2697.5600000000004 C 2648.0199999999995 2692.6300000000006 2649.1299999999997 2687.8 2650.0699999999997 2682.78 C 2653.0399999999995 2666.7000000000003 2655.0899999999997 2650.25 2655.0899999999997 2633.25 C 2655.0899999999997 2614.48 2653.1299999999997 2596.17 2649.5099999999998 2578.42 C 2646.6299999999997 2563.83 2641.7999999999997 2550.07 2636.68 2536.41 C 2635.66 2533.62 2635.2 2530.6499999999996 2634.08 2527.8599999999997 C 2620.89 2495.7999999999997 2601.65 2466.99 2578.13 2442.18 C 2577.86 2441.8999999999996 2577.76 2441.62 2577.4900000000002 2441.3399999999997 C 2534.7400000000002 2396.64 2477.21 2367.0899999999997 2412.9 2358.6299999999997 C 2401.01 2357.0499999999997 2389.2000000000003 2355.0099999999998 2376.85 2355.0099999999998 C 2326.1 2355.0099999999998 2279.17 2369.6 2238.19 2393.39 C 2246.65 2370.43 2257.15 2348.22 2267.7400000000002 2326.19 C 2277.2200000000003 2307.43 2287.26 2289.03 2298.13 2270.9 C 2308.1600000000003 2254.17 2317.28 2237.17 2328.8900000000003 2221.28 L 2252.13 2165.05 C 2196.37 2241.26 2157.71 2326.01 2132.62 2414.9500000000003 z M 2077.7799999999997 2885.1899999999996 L 2102.8799999999997 2885.1899999999996 C 2093.3999999999996 2874.8699999999994 2084.4799999999996 2864.1799999999994 2076.2 2852.8399999999997 C 2076.6699999999996 2863.6299999999997 2077.7 2874.3199999999997 2077.7799999999997 2885.1899999999996 z M 1907.8099999999997 2371.1799999999994 C 1949.6299999999997 2428.6999999999994 1983.9299999999998 2490.9699999999993 2010.7799999999997 2556.2999999999993 C 2018.3099999999997 2469.959999999999 2037.5499999999997 2386.419999999999 2068.58 2307.2399999999993 C 2011.52 2321.1799999999994 1957.34 2342.3699999999994 1907.81 2371.1799999999994 z M 1699.3699999999997 2572.379999999999 C 1642.0299999999997 2663.2599999999993 1608.1099999999997 2770.4099999999994 1606.3399999999997 2885.189999999999 L 1792.2899999999997 2885.189999999999 C 1790.5299999999997 2774.129999999999 1758.0999999999997 2665.6799999999994 1699.3699999999997 2572.379999999999 z M 2882.58 2500.4499999999994 C 2826.08 2499.6999999999994 2770.88 2493.4699999999993 2717.35 2482.5999999999995 C 2737.89 2528.8899999999994 2750.24 2579.4399999999996 2750.24 2633.2499999999995 C 2750.24 2692.6299999999997 2735.0099999999998 2748.1099999999997 2710.2 2798.0199999999995 C 2803.7799999999997 2728.1299999999997 2869.2 2622.5599999999995 2882.58 2500.4499999999994 z M 2489.7599999999998 3169.749999999999 C 2541.3399999999997 3229.959999999999 2574.14 3306.629999999999 2578.97 3390.829999999999 C 2994.47 3202.829999999999 3315 2847.3599999999988 3456.5299999999997 2410.669999999999 C 3445.4799999999996 2382.879999999999 3432.56 2356.309999999999 3417.7799999999997 2330.8399999999992 C 3342.2299999999996 2385.579999999999 3258.68 2427.959999999999 3170.58 2456.669999999999 C 3168.8199999999997 2838.539999999999 2867.25 3150.789999999999 2489.7599999999998 3169.749999999999 z M 3170.58 2096.379999999999 L 3170.58 2147.119999999999 C 3186.19 2139.399999999999 3201.34 2131.039999999999 3215.93 2122.119999999999 C 3201.25 2112.919999999999 3186.1 2104.369999999999 3170.58 2096.379999999999 z M 2885.09 2214.9499999999994 L 2885.09 2029.1799999999994 C 2774.03 2030.9499999999994 2665.59 2063.379999999999 2572.37 2121.9299999999994 C 2663.2599999999998 2179.359999999999 2770.3199999999997 2213.1899999999996 2885.09 2214.9499999999994 z M 3075.42 1860.2399999999993 L 3075.42 1368.0599999999993 C 3075.42 1025.0499999999993 2796.34 745.9689999999993 2453.33 745.9689999999993 L 2453.33 841.1409999999993 C 2484.37 841.1409999999993 2514.66 844.3909999999993 2544.31 849.5899999999992 C 2547.29 850.0509999999992 2550.35 850.3399999999992 2553.32 850.8909999999993 C 2581.48 856.3789999999993 2608.71 864.3709999999993 2635.01 874.1209999999993 C 2638.73 875.4219999999993 2642.5400000000004 876.7299999999993 2646.1600000000003 878.2189999999993 C 2672.09 888.4409999999992 2696.9900000000002 900.7109999999992 2720.6900000000005 914.8319999999992 C 2723.7600000000007 916.6019999999992 2726.8300000000004 918.4489999999992 2729.8000000000006 920.3199999999993 C 2753.870000000001 935.2809999999993 2776.7300000000005 951.9099999999993 2798.0200000000004 970.3979999999992 C 2799.5000000000005 971.8009999999992 2800.9900000000002 973.1989999999993 2802.5700000000006 974.5819999999992 C 2893.640000000001 1055.7199999999991 2956.6500000000005 1167.8799999999992 2974.4900000000007 1294.4599999999991 L 2974.4900000000007 1294.549999999999 C 2977.9300000000007 1318.629999999999 2980.250000000001 1343.059999999999 2980.250000000001 1368.059999999999 L 2980.250000000001 1579.949999999999 L 2980.250000000001 1843.5099999999989 C 2952.100000000001 1840.5299999999988 2923.560000000001 1838.7599999999989 2894.6600000000008 1838.7599999999989 C 2710.2000000000007 1838.7599999999989 2530.370000000001 1903.2599999999989 2388.460000000001 2020.449999999999 L 2449.050000000001 2093.869999999999 C 2573.960000000001 1990.709999999999 2732.220000000001 1933.929999999999 2894.660000000001 1933.929999999999 C 2923.660000000001 1933.929999999999 2952.1000000000013 1936.2499999999989 2980.2500000000014 1939.689999999999 L 2980.2500000000014 2302.779999999999 C 2951.8200000000015 2306.309999999999 2923.4800000000014 2310.2099999999987 2894.660000000001 2310.2099999999987 C 2871.4400000000014 2310.2099999999987 2848.5600000000013 2309.009999999999 2825.8900000000012 2306.779999999999 C 2818.180000000001 2306.029999999999 2810.6500000000015 2304.539999999999 2803.0400000000013 2303.5199999999986 C 2788.3500000000013 2301.569999999999 2773.660000000001 2299.7099999999987 2759.260000000001 2296.8299999999986 C 2749.970000000001 2294.9699999999984 2741.0400000000013 2292.5599999999986 2731.940000000001 2290.4199999999987 C 2719.480000000001 2287.4399999999987 2707.130000000001 2284.469999999999 2694.950000000001 2280.8499999999985 C 2685.1000000000013 2277.8699999999985 2675.530000000001 2274.4399999999987 2665.8700000000013 2271.0899999999983 C 2654.990000000001 2267.2799999999984 2644.0200000000013 2263.4699999999984 2633.430000000001 2259.1899999999982 C 2623.2100000000014 2255.1099999999983 2613.260000000001 2250.5499999999984 2603.410000000001 2245.999999999998 C 2593.840000000001 2241.6299999999983 2584.3700000000013 2237.1699999999983 2574.970000000001 2232.3399999999983 C 2564.660000000001 2226.9499999999985 2554.430000000001 2221.2799999999984 2544.400000000001 2215.4199999999983 C 2536.220000000001 2210.6799999999985 2528.130000000001 2205.7599999999984 2520.050000000001 2200.6499999999983 C 2509.550000000001 2193.9499999999985 2499.1400000000012 2186.9899999999984 2488.920000000001 2179.729999999998 C 2482.230000000001 2174.9899999999984 2475.720000000001 2169.979999999998 2469.220000000001 2164.959999999998 C 2458.3500000000013 2156.599999999998 2447.660000000001 2148.139999999998 2437.340000000001 2139.2199999999984 C 2432.410000000001 2134.9399999999982 2427.680000000001 2130.4799999999987 2422.840000000001 2126.0199999999986 C 2411.6000000000013 2115.7099999999987 2400.540000000001 2105.299999999999 2389.950000000001 2094.3299999999986 C 2387.160000000001 2091.4499999999985 2384.650000000001 2088.3799999999987 2381.8700000000013 2085.4999999999986 C 2286.1400000000012 1981.9799999999987 2220.8100000000013 1849.9199999999987 2201.1000000000013 1703.3599999999988 C 2196.9200000000014 1672.5999999999988 2194.0400000000013 1641.4699999999987 2194.0400000000013 1609.5899999999988 L 2098.8800000000015 1609.5899999999988 C 2098.8800000000015 1700.2099999999987 2114.8600000000015 1786.9099999999987 2142.8400000000015 1868.1399999999987 C 2142.8400000000015 1868.1399999999987 2142.8400000000015 1868.2299999999987 2142.9300000000017 1868.2299999999987 C 2168.0300000000016 1941.0899999999986 2203.2400000000016 2009.0199999999986 2247.2000000000016 2070.6299999999987 C 2247.290000000002 2070.7299999999987 2247.3900000000017 2070.909999999999 2247.480000000002 2070.9999999999986 L 2247.5800000000017 2070.9999999999986 C 2295.5300000000016 2138.0999999999985 2353.610000000002 2197.2099999999987 2419.590000000002 2246.5599999999986 C 2429.350000000002 2253.8899999999985 2438.8300000000017 2261.6099999999988 2448.960000000002 2268.4899999999984 C 2503.7000000000016 2305.6599999999985 2563.540000000002 2335.3099999999986 2626.740000000002 2357.979999999998 C 2626.740000000002 2357.979999999998 2626.840000000002 2357.979999999998 2626.840000000002 2358.0699999999983 C 2646.720000000002 2365.1399999999985 2666.880000000002 2371.5499999999984 2687.420000000002 2377.1199999999985 C 2690.400000000002 2377.8699999999985 2693.470000000002 2378.6099999999983 2696.440000000002 2379.3499999999985 C 2714.6600000000017 2384.0999999999985 2732.960000000002 2388.4599999999987 2751.6400000000017 2391.8099999999986 C 2760.4700000000016 2393.4799999999987 2769.3900000000017 2394.589999999999 2778.2200000000016 2395.8999999999987 C 2792.3400000000015 2397.9399999999987 2806.2800000000016 2400.3499999999985 2820.6000000000017 2401.659999999999 C 2844.940000000002 2403.979999999999 2869.670000000002 2405.369999999999 2894.6600000000017 2405.369999999999 C 3079.040000000002 2405.369999999999 3258.8700000000017 2340.879999999999 3400.8700000000017 2223.599999999999 L 3340.270000000002 2150.179999999999 C 3262.6800000000017 2214.209999999999 3171.6000000000017 2257.989999999999 3075.420000000002 2283.819999999999 L 3075.420000000002 1958.3699999999988 C 3301.150000000002 2018.7799999999988 3481.900000000002 2188.839999999999 3557.090000000002 2408.069999999999 C 3395.200000000002 2942.989999999999 2979.3300000000017 3367.699999999999 2450.350000000002 3543.049999999999 C 2471.450000000002 3503.929999999999 2484.4600000000023 3459.969999999999 2484.4600000000023 3412.4799999999987 C 2484.4600000000023 3259.049999999999 2359.6500000000024 3134.2499999999986 2206.220000000002 3134.2499999999986 C 2052.780000000002 3134.2499999999986 1927.980000000002 3259.049999999999 1927.980000000002 3412.4799999999987 C 1927.980000000002 3462.4799999999987 1942.290000000002 3508.759999999999 1965.430000000002 3549.279999999999 C 1903.260000000002 3525.8599999999988 1843.8800000000022 3495.009999999999 1789.7900000000022 3454.029999999999 L 1732.3500000000022 3529.8599999999988 C 1788.8600000000022 3572.6099999999988 1850.6600000000021 3604.949999999999 1914.8700000000022 3630.8799999999987 C 1913.480000000002 3630.8799999999987 1912.0900000000022 3631.0599999999986 1910.690000000002 3631.0599999999986 C 1791.6500000000021 3631.0599999999986 1675.3900000000021 3618.8899999999985 1563.030000000002 3595.7499999999986 C 1761.260000000002 3488.8799999999987 1908.740000000002 3300.319999999999 1961.250000000002 3075.5099999999984 L 2453.330000000002 3075.5099999999984 C 2796.340000000002 3075.5099999999984 3075.4200000000023 2796.3399999999983 3075.4200000000023 2453.3299999999986 L 2980.2500000000023 2453.3299999999986 C 2980.2500000000023 2484.3699999999985 2977.0000000000023 2514.6699999999987 2971.8000000000025 2544.3099999999986 C 2971.3400000000024 2547.2799999999984 2971.0500000000025 2550.3499999999985 2970.5000000000023 2553.319999999999 C 2965.0100000000025 2581.4799999999987 2957.0200000000023 2608.7099999999987 2947.2700000000023 2635.009999999999 C 2945.970000000002 2638.7299999999987 2944.660000000002 2642.4399999999987 2943.1700000000023 2646.1699999999987 C 2932.9500000000025 2672.089999999999 2920.6800000000026 2696.9099999999985 2906.6500000000024 2720.5999999999985 C 2904.7900000000022 2723.7599999999984 2902.9400000000023 2726.7399999999984 2901.0700000000024 2729.7999999999984 C 2886.1100000000024 2753.8699999999985 2869.4800000000023 2776.729999999998 2850.9900000000025 2798.019999999998 C 2849.6900000000023 2799.509999999998 2848.2900000000027 2800.989999999998 2846.8900000000026 2802.479999999998 C 2765.8600000000024 2893.5499999999984 2653.880000000003 2956.559999999998 2527.3900000000026 2974.499999999998 C 2503.1300000000024 2977.929999999998 2478.5200000000027 2980.349999999998 2453.3300000000027 2980.349999999998 L 2241.3500000000026 2980.349999999998 L 1977.9800000000027 2980.349999999998 C 1980.9500000000028 2952.1899999999982 1982.7100000000028 2923.659999999998 1982.7100000000028 2894.759999999998 C 1982.7100000000028 2710.289999999998 1918.1300000000028 2530.559999999998 1800.9400000000028 2388.4599999999978 L 1727.5200000000027 2449.0599999999977 C 1830.6800000000028 2574.0499999999975 1887.5500000000027 2732.3099999999977 1887.5500000000027 2894.7599999999975 C 1887.5500000000027 2923.7499999999973 1885.2300000000027 2952.1899999999973 1881.7900000000027 2980.3499999999976 L 1518.5200000000027 2980.3499999999976 C 1514.9900000000027 2951.9099999999976 1511.0800000000027 2923.5699999999974 1511.0800000000027 2894.7599999999975 C 1511.0800000000027 2871.5299999999975 1512.3800000000026 2848.6599999999976 1514.6100000000026 2825.9899999999975 C 1515.3600000000026 2818.2699999999977 1516.7500000000027 2810.7499999999977 1517.7700000000027 2803.1299999999974 C 1519.7300000000027 2788.4499999999975 1521.6800000000028 2773.7599999999975 1524.4700000000028 2759.3599999999974 C 1526.3200000000027 2750.059999999997 1528.7400000000027 2741.0499999999975 1530.9700000000028 2731.9399999999973 C 1533.9500000000028 2719.579999999997 1536.8300000000027 2707.1299999999974 1540.4500000000028 2695.0499999999975 C 1543.4200000000028 2685.1999999999975 1546.8700000000028 2675.5299999999975 1550.2100000000028 2665.8699999999976 C 1554.0200000000027 2654.9899999999975 1557.8300000000027 2644.1199999999976 1562.1000000000029 2633.4299999999976 C 1566.280000000003 2623.2999999999975 1570.750000000003 2613.2599999999975 1575.3900000000028 2603.3199999999974 C 1579.6700000000028 2593.8399999999974 1584.2200000000028 2584.3599999999974 1588.9600000000028 2575.1599999999976 C 1594.3500000000029 2564.6599999999976 1600.0200000000027 2554.439999999998 1605.9700000000028 2544.3099999999977 C 1610.7100000000028 2536.129999999998 1615.5400000000027 2528.1399999999976 1620.5600000000027 2520.2399999999975 C 1627.3400000000026 2509.6499999999974 1634.3100000000027 2499.1399999999976 1641.6600000000026 2488.8299999999977 C 1646.4000000000026 2482.2299999999977 1651.3200000000027 2475.8199999999974 1656.2500000000025 2469.4099999999976 C 1664.6100000000024 2458.5299999999975 1673.1600000000026 2447.6599999999976 1682.1700000000026 2437.2499999999977 C 1686.3600000000026 2432.419999999998 1690.8200000000027 2427.7699999999977 1695.0900000000026 2423.129999999998 C 1705.5000000000027 2411.7899999999977 1716.0000000000027 2400.549999999998 1727.0600000000027 2389.949999999998 C 1729.8500000000026 2387.249999999998 1732.8200000000027 2384.739999999998 1735.6100000000026 2382.139999999998 C 1839.0400000000027 2286.229999999998 1971.1900000000026 2220.909999999998 2117.7400000000025 2201.109999999998 C 2148.6000000000026 2197.0199999999977 2179.8200000000024 2194.049999999998 2211.8000000000025 2194.049999999998 L 2211.8000000000025 2098.889999999998 C 2039.5900000000024 2098.889999999998 1880.4000000000024 2154.459999999998 1749.9200000000023 2247.849999999998 L 1749.9200000000023 2247.849999999998 C 1619.4400000000023 2341.349999999998 1518.6100000000024 2473.029999999998 1463.4100000000024 2626.6499999999983 L 1463.3200000000024 2626.7399999999984 C 1463.2200000000025 2627.0199999999986 1463.1300000000024 2627.2999999999984 1463.0400000000025 2627.5799999999986 C 1456.0700000000024 2647.089999999999 1449.7500000000025 2666.9799999999987 1444.3600000000024 2687.2399999999984 C 1443.4300000000023 2690.3999999999983 1442.6900000000023 2693.6599999999985 1441.8500000000024 2696.8099999999986 C 1437.2000000000023 2714.9299999999985 1432.9300000000023 2733.1499999999987 1429.4900000000025 2751.7399999999984 C 1427.8200000000024 2760.5599999999986 1426.8000000000025 2769.4899999999984 1425.4000000000026 2778.4099999999985 C 1423.3500000000026 2792.4399999999987 1421.0400000000027 2806.3799999999983 1419.6400000000026 2820.5999999999985 C 1417.3100000000027 2845.0399999999986 1415.9200000000026 2869.7599999999984 1415.9200000000026 2894.7599999999984 C 1415.9200000000026 3079.1399999999985 1480.5100000000025 3258.8699999999985 1597.7900000000027 3400.959999999998 L 1671.2100000000028 3340.369999999998 C 1607.1800000000028 3262.769999999998 1563.4000000000028 3171.699999999998 1537.570000000003 3075.509999999998 L 1863.020000000003 3075.509999999998 C 1802.6100000000029 3301.159999999998 1632.550000000003 3481.909999999998 1413.230000000003 3557.089999999998 C 878.398 3395.2 453.695 2979.42 278.336 2450.45 C 317.461 2471.45 361.50800000000004 2484.5499999999997 408.906 2484.5499999999997 C 562.336 2484.5499999999997 687.2339999999999 2359.6499999999996 687.2339999999999 2206.22 C 687.2339999999999 2052.79 562.3359999999999 1927.9799999999998 408.90599999999995 1927.9799999999998 C 358.90599999999995 1927.9799999999998 312.71899999999994 1942.2899999999997 272.1089999999999 1965.4299999999998 C 295.52699999999993 1903.35 326.4769999999999 1843.8799999999999 367.45699999999994 1789.6 L 291.6209999999999 1732.27 C 248.77699999999993 1788.86 216.53099999999992 1850.76 190.51199999999994 1915.06 C 190.51199999999994 1913.58 190.32799999999995 1912.1799999999998 190.32799999999995 1910.7 C 190.32799999999995 1791.65 202.59399999999994 1675.39 225.64099999999996 1563.04 C 332.51599999999996 1761.35 521.1679999999999 1908.74 745.973 1961.1599999999999 L 745.973 2453.33 C 745.973 2796.34 1025.05 3075.5099999999998 1368.15 3075.5099999999998 L 1368.15 2980.35 C 1337.02 2980.35 1306.72 2977.1 1277.0800000000002 2971.89 C 1274.1100000000001 2971.43 1271.13 2971.15 1268.16 2970.5 C 1240 2965.11 1212.68 2957.12 1186.2800000000002 2947.36 C 1182.6600000000003 2945.96 1179.0300000000002 2944.76 1175.4100000000003 2943.36 C 1149.3900000000003 2933.05 1124.3900000000003 2920.69 1100.6000000000004 2906.56 C 1097.6300000000003 2904.7999999999997 1094.7500000000005 2903.0299999999997 1091.8700000000003 2901.2599999999998 C 1067.7100000000003 2886.2099999999996 1044.6600000000003 2869.4799999999996 1023.2800000000003 2850.89 C 1021.8800000000003 2849.69 1020.5900000000003 2848.39 1019.1900000000003 2847.18 C 927.9300000000003 2765.96 864.7340000000003 2653.6899999999996 846.8950000000003 2526.93 C 843.4570000000003 2502.8599999999997 841.1330000000004 2478.33 841.1330000000004 2453.33 L 841.1330000000004 2241.54 L 841.1330000000004 1977.8799999999999 C 869.2930000000003 1980.9499999999998 897.8200000000004 1982.7199999999998 926.7230000000004 1982.7199999999998 C 1111.0100000000004 1982.7199999999998 1290.7400000000005 1918.1299999999999 1432.9300000000003 1800.9399999999998 L 1372.3300000000004 1727.5199999999998 C 1247.2500000000005 1830.6799999999998 1088.9800000000005 1887.5499999999997 926.7230000000004 1887.5499999999997 C 897.7300000000004 1887.5499999999997 869.2930000000005 1885.2299999999998 841.1330000000004 1881.7899999999997 L 841.1330000000004 1518.6199999999997 C 869.5700000000004 1515.1799999999996 897.9140000000003 1511.1799999999996 926.7230000000004 1511.1799999999996 C 949.9570000000004 1511.1799999999996 972.8160000000004 1512.4799999999996 995.3980000000004 1514.7099999999996 C 1003.2100000000004 1515.4499999999996 1010.7300000000004 1516.9399999999996 1018.3500000000004 1517.8699999999997 C 1033.0400000000004 1519.8199999999997 1047.7200000000003 1521.7699999999998 1062.1300000000003 1524.5599999999997 C 1071.3300000000004 1526.4199999999996 1080.3400000000004 1528.8399999999997 1089.4500000000003 1531.0699999999997 C 1101.8100000000002 1534.0399999999997 1114.2600000000002 1537.0099999999998 1126.4400000000003 1540.6399999999996 C 1136.1900000000003 1543.5199999999998 1145.7700000000002 1546.9599999999996 1155.3400000000004 1550.3099999999997 C 1166.3000000000004 1554.1099999999997 1177.2700000000004 1557.9199999999996 1187.9600000000003 1562.2899999999997 C 1198.0900000000004 1566.3799999999997 1207.9400000000003 1570.8399999999997 1217.7900000000002 1575.3899999999996 C 1227.4500000000003 1579.7599999999995 1237.0300000000002 1584.3199999999997 1246.41 1589.1499999999996 C 1256.73 1594.5399999999997 1266.8600000000001 1600.1099999999997 1276.89 1605.9699999999996 C 1285.0700000000002 1610.7099999999996 1293.25 1615.6399999999996 1301.24 1620.7499999999995 C 1311.74 1627.5299999999995 1322.15 1634.4099999999996 1332.3700000000001 1641.6499999999996 C 1339.0700000000002 1646.4899999999996 1345.5700000000002 1651.4199999999996 1352.0800000000002 1656.4299999999996 C 1362.95 1664.7999999999995 1373.64 1673.3399999999997 1384.0400000000002 1682.2699999999995 C 1388.88 1686.4499999999996 1393.5300000000002 1690.9099999999996 1398.2600000000002 1695.2799999999995 C 1409.6000000000001 1705.5999999999995 1420.8400000000001 1716.1799999999996 1431.4400000000003 1727.2499999999995 C 1434.0400000000002 1729.9399999999996 1436.4600000000003 1732.8299999999995 1438.9700000000003 1735.5199999999995 C 1534.9700000000003 1839.0499999999995 1600.3900000000003 1971.2899999999995 1620.1900000000003 2118.0299999999997 C 1624.3700000000003 2148.8799999999997 1627.2500000000002 2180.0099999999998 1627.2500000000002 2211.89 L 1722.4100000000003 2211.89 C 1722.4100000000003 1951.31 1595.9300000000003 1720.2799999999997 1401.8000000000002 1575.02 L 1401.8000000000002 1574.93 C 1395.7500000000002 1570.47 1389.7200000000003 1565.91 1383.67 1561.3600000000001 C 1308.8600000000001 1508.67 1224.5700000000002 1468.9 1133.8700000000001 1444.3600000000001 C 1131.0800000000002 1443.6200000000001 1128.3000000000002 1442.96 1125.5100000000002 1442.22 C 1107.1000000000001 1437.48 1088.6100000000001 1433.02 1069.6500000000003 1429.58 C 1061.1000000000004 1428 1052.2800000000004 1426.99 1043.5400000000004 1425.59 C 1029.3200000000004 1423.55 1015.2000000000004 1421.1299999999999 1000.7900000000004 1419.83 C 976.4450000000004 1417.4199999999998 951.7230000000004 1416.02 926.7230000000004 1416.02 C 742.3440000000004 1416.02 562.5200000000004 1480.6 420.4300000000004 1597.88 L 481.02000000000044 1671.3000000000002 C 558.6170000000004 1607.1800000000003 649.7850000000004 1563.5000000000002 745.9730000000004 1537.67 L 745.9730000000004 1863.02 C 520.234 1802.61 339.48 1632.64 264.301 1413.32 C 426.191 878.398 842.063 453.699 1371.04 278.25 C 1349.94 317.461 1336.93 361.512 1336.93 408.90999999999997 C 1336.93 562.3399999999999 1461.74 687.141 1615.17 687.141 C 1768.6000000000001 687.141 1893.41 562.3399999999999 1893.41 408.90999999999997 C 1893.41 359 1879.1000000000001 312.81999999999994 1855.96 272.19899999999996 C 1918.13 295.621 1977.51 326.56999999999994 2031.69 367.44899999999996 L 2089.12 291.621 C 2032.53 248.78099999999998 1970.6299999999999 216.539 1906.4199999999998 190.512 C 1907.81 190.512 1909.2099999999998 190.332 1910.6899999999998 190.332 C 2029.83 190.332 2146.0899999999997 202.59 2258.45 225.742 C 2060.1299999999997 332.512 1912.6499999999999 521.172 1860.1399999999999 745.9689999999999 L 1368.1499999999999 745.9689999999999 C 1025.0499999999997 745.9689999999999 745.9729999999998 1025.05 745.9729999999998 1368.06 L 841.1329999999998 1368.06 C 841.1329999999998 1337.02 844.3869999999998 1306.73 849.5899999999998 1277.08 C 850.0549999999998 1274.1 850.3319999999998 1271.04 850.8909999999998 1268.07 C 856.3789999999999 1239.9099999999999 864.3629999999998 1212.59 874.1209999999999 1186.19 C 875.5199999999999 1182.5700000000002 876.7299999999999 1178.95 878.2149999999999 1175.3300000000002 C 888.4379999999999 1149.3000000000002 900.7969999999999 1124.3000000000002 914.9219999999999 1100.5100000000002 C 916.6879999999999 1097.5300000000002 918.4529999999999 1094.6500000000003 920.2189999999999 1091.7700000000002 C 935.2729999999999 1067.6100000000001 952.0039999999999 1044.5600000000002 970.5859999999999 1023.1900000000002 C 971.7969999999999 1021.8000000000002 973.0979999999998 1020.4900000000001 974.3979999999999 1019.1000000000001 C 1055.62 927.8520000000001 1167.8799999999999 864.7380000000002 1294.6399999999999 846.8980000000001 C 1294.6399999999999 846.8980000000001 1294.7399999999998 846.8980000000001 1294.7399999999998 846.8010000000002 C 1318.8099999999997 843.4610000000001 1343.1499999999999 841.1410000000002 1368.1499999999999 841.1410000000002 L 1579.9499999999998 841.1410000000002 L 1843.4099999999999 841.1410000000002 C 1840.4399999999998 869.2890000000002 1838.6699999999998 897.7300000000002 1838.6699999999998 926.7300000000002 C 1838.6699999999998 1111.1100000000001 1903.2599999999998 1290.9300000000003 2020.4499999999998 1432.9300000000003 L 2093.87 1372.3400000000004 C 1990.7099999999998 1247.3500000000004 1933.84 1089.0800000000004 1933.84 926.7300000000004 C 1933.84 897.7300000000004 1936.1599999999999 869.2890000000003 1939.6 841.1410000000003 L 2302.87 841.1410000000003 C 2306.4 869.4800000000002 2310.2999999999997 897.9100000000003 2310.2999999999997 926.7300000000002 C 2310.2999999999997 949.8710000000002 2308.9999999999995 972.8320000000002 2306.7699999999995 995.5000000000002 C 2306.0299999999997 1003.1200000000002 2304.6399999999994 1010.5500000000002 2303.6099999999997 1018.1800000000002 C 2301.66 1032.9500000000003 2299.7099999999996 1047.7300000000002 2296.9199999999996 1062.2200000000003 C 2295.0599999999995 1071.3300000000002 2292.6499999999996 1080.1600000000003 2290.5099999999998 1089.1700000000003 C 2287.54 1101.7200000000003 2284.56 1114.2600000000002 2280.9399999999996 1126.5400000000002 C 2277.9599999999996 1136.2900000000002 2274.5199999999995 1145.7600000000002 2271.2699999999995 1155.3500000000001 C 2267.3699999999994 1166.3000000000002 2263.5499999999997 1177.2700000000002 2259.1899999999996 1188.0500000000002 C 2255.0999999999995 1198.1800000000003 2250.6399999999994 1208.0300000000002 2246.0799999999995 1217.9800000000002 C 2241.7199999999993 1227.5500000000002 2237.1699999999996 1237.0200000000002 2232.3299999999995 1246.4200000000003 C 2227.0399999999995 1256.7300000000002 2221.3699999999994 1266.9600000000003 2215.5199999999995 1276.9900000000002 C 2210.7699999999995 1285.2600000000002 2205.8499999999995 1293.3400000000001 2200.7299999999996 1301.3400000000001 C 2193.9599999999996 1311.93 2187.0799999999995 1322.2500000000002 2179.8199999999997 1332.4700000000003 C 2174.99 1339.1600000000003 2170.0699999999997 1345.6700000000003 2165.0499999999997 1352.1700000000003 C 2156.6899999999996 1363.0400000000002 2148.2299999999996 1373.7300000000002 2139.22 1384.1400000000003 C 2135.0299999999997 1388.9800000000002 2130.58 1393.6200000000003 2126.2 1398.4500000000003 C 2115.79 1409.7000000000003 2105.29 1420.9400000000003 2094.24 1431.5400000000002 C 2091.54 1434.13 2088.56 1436.64 2085.7799999999997 1439.2500000000002 C 1982.3399999999997 1535.1600000000003 1850.0099999999998 1600.5800000000002 1703.3599999999997 1620.3700000000003 L 1703.3599999999997 1620.3700000000003 C 1672.5999999999997 1624.5500000000004 1641.3799999999997 1627.4300000000003 1609.4999999999998 1627.4300000000003 L 1609.4999999999998 1722.6000000000004 C 1700.0099999999998 1722.6000000000004 1786.7199999999998 1706.6100000000004 1867.85 1678.7300000000005 C 1868.04 1678.6500000000005 1868.2199999999998 1678.5500000000004 1868.32 1678.5500000000004 C 1941.36 1653.2700000000004 2009.48 1617.8600000000004 2071.19 1573.7200000000005 L 2071.46 1573.6300000000006 C 2071.46 1573.6300000000006 2071.46 1573.6300000000006 2071.46 1573.5400000000006 C 2201.94 1480.1400000000006 2302.77 1348.4500000000007 2357.98 1194.8400000000006 L 2358.08 1194.7400000000007 C 2358.16 1194.4700000000007 2358.25 1194.1800000000007 2358.35 1193.9100000000008 C 2365.3199999999997 1174.3000000000009 2371.54 1154.4100000000008 2377.0299999999997 1134.2400000000007 C 2377.9599999999996 1130.9900000000007 2378.7 1127.8400000000006 2379.54 1124.6700000000008 C 2384.19 1106.5600000000009 2388.46 1088.3300000000008 2391.89 1069.7500000000007 C 2393.5699999999997 1060.9200000000008 2394.5899999999997 1051.9100000000008 2395.99 1043.0800000000006 C 2398.04 1029.0500000000006 2400.35 1015.1100000000006 2401.75 1000.7900000000006 C 2404.07 976.4490000000006 2405.47 951.7190000000006 2405.47 926.7300000000007 C 2405.47 742.3520000000008 2340.8799999999997 562.6210000000008 2223.5899999999997 420.5200000000007 L 2150.1899999999996 481.1210000000007 C 2214.2099999999996 558.7110000000007 2257.9799999999996 649.7890000000007 2283.8199999999997 745.9690000000007 L 1958.3699999999997 745.9690000000007 C 2018.7799999999997 520.2420000000008 2188.8399999999997 339.49200000000076 2408.2499999999995 264.3010000000007 C 2943.0799999999995 426.28100000000074 3367.6899999999996 842.0590000000008 3543.0599999999995 1370.9400000000005 C 3503.9299999999994 1349.9400000000005 3459.8799999999997 1336.9300000000005 3412.4799999999996 1336.9300000000005 C 3259.0499999999997 1336.9300000000005 3134.2499999999995 1461.7400000000005 3134.2499999999995 1615.1700000000005 C 3134.2499999999995 1768.6100000000006 3259.0499999999997 1893.4100000000005 3412.4799999999996 1893.4100000000005 C 3462.4799999999996 1893.4100000000005 3508.6699999999996 1879.1900000000005 3549.2799999999997 1856.0500000000006 C 3525.8599999999997 1918.1300000000006 3494.91 1977.5100000000007 3453.9399999999996 2031.6900000000005 L 3529.7699999999995 2089.1200000000003 C 3572.6099999999997 2032.6300000000003 3604.8499999999995 1970.7300000000002 3630.8799999999997 1906.5200000000004 C 3630.8799999999997 1907.9100000000005 3631.0599999999995 1909.3000000000004 3631.0599999999995 1910.7000000000005 C 3631.0599999999995 2029.8400000000006 3618.7999999999993 2146.0000000000005 3595.6499999999996 2258.3600000000006 C 3488.8799999999997 2060.1300000000006 3300.22 1912.7400000000007 3075.4199999999996 1860.2400000000007" stroke-linecap="round" />
</g>
		<g transform="matrix(0.06929330038134135 0 0 -0.06929330038134135 -104.04794418065637 -20.481020793713043)"  >
<linearGradient id="SVGID_11_11_11_1_825019" gradientUnits="userSpaceOnUse" gradientTransform="matrix(1 0 0 1 226.19900000000007 2023.1400000000003)"  x1="0" y1="0" x2="0" y2="366">
<stop offset="0%" style="stop-color:rgb(98,39,116);stop-opacity: 1"/>
<stop offset="100%" style="stop-color:rgb(197,51,100);stop-opacity: 1"/>
</linearGradient>
<path style="stroke: none; stroke-width: 1; stroke-dasharray: none; stroke-linecap: butt; stroke-dashoffset: 0; stroke-linejoin: miter; stroke-miterlimit: 4; fill: url(#SVGID_11_11_11_1_825019); fill-rule: nonzero; opacity: 1;"  paint-order="stroke"  transform=" translate(-409.13650000000007, -2206.2650000000003)" d="M 408.906 2294.23 C 457.41 2294.23 496.91 2254.73 496.91 2206.22 C 496.91 2157.81 457.41 2118.31 408.906 2118.31 C 367.363 2118.31 331.953 2147.49 323.496 2188.1 C 323.125 2192.38 322.65999999999997 2196.56 322.195 2200.83 C 321.918 2203.81 321.363 2206.7799999999997 321.363 2209.85 C 322.289 2255.48 361.602 2294.23 408.906 2294.23 z M 408.906 2023.14 C 509.922 2023.14 592.0740000000001 2105.3 592.0740000000001 2206.2200000000003 C 592.0740000000001 2307.2400000000002 509.9220000000001 2389.3900000000003 408.90600000000006 2389.3900000000003 C 309.18800000000005 2389.3900000000003 228.14800000000005 2309.1000000000004 226.19900000000007 2209.7500000000005 C 226.19900000000007 2198.4200000000005 228.33600000000007 2187.4500000000003 228.89100000000008 2176.2000000000003 C 243.30100000000007 2089.59 318.2970000000001 2023.1400000000003 408.90600000000006 2023.1400000000003" stroke-linecap="round" />
</g>
		<g transform="matrix(0.06929330038134135 0 0 -0.06929330038134135 104.05081985262223 20.4779025951959)"  >
<linearGradient id="SVGID_11_11_11_1_825020" gradientUnits="userSpaceOnUse" gradientTransform="matrix(1 0 0 1 3229.4 1432.0900000000001)"  x1="0" y1="0" x2="0" y2="366">
<stop offset="0%" style="stop-color:rgb(98,39,116);stop-opacity: 1"/>
<stop offset="100%" style="stop-color:rgb(197,51,100);stop-opacity: 1"/>
</linearGradient>
<path style="stroke: none; stroke-width: 1; stroke-dasharray: none; stroke-linecap: butt; stroke-dashoffset: 0; stroke-linejoin: miter; stroke-miterlimit: 4; fill: url(#SVGID_11_11_11_1_825020); fill-rule: nonzero; opacity: 1;"  paint-order="stroke"  transform=" translate(-3412.295, -1615.17)" d="M 3412.48 1527.26 C 3363.97 1527.26 3324.57 1566.66 3324.57 1615.17 C 3324.57 1663.68 3363.9700000000003 1703.0800000000002 3412.48 1703.0800000000002 C 3454.12 1703.0800000000002 3489.43 1674.0000000000002 3497.89 1633.2900000000002 C 3498.2599999999998 1628.9200000000003 3498.72 1624.65 3499.19 1620.3700000000001 C 3499.56 1617.49 3500.03 1614.6100000000001 3500.03 1611.63 C 3499.19 1565.91 3459.88 1527.2600000000002 3412.48 1527.2600000000002 z M 3412.48 1798.25 C 3311.56 1798.25 3229.4 1716.18 3229.4 1615.17 C 3229.4 1514.25 3311.56 1432.0900000000001 3412.48 1432.0900000000001 C 3512.2 1432.0900000000001 3593.33 1512.39 3595.19 1611.73 C 3595.19 1622.98 3593.06 1633.85 3592.4900000000002 1645.09 C 3578.1800000000003 1731.8 3503.1800000000003 1798.25 3412.4800000000005 1798.25" stroke-linecap="round" />
</g>
</g>
</g>
<g transform="matrix(1.9211538461538462 0 0 1.9211538461538462 640 775.3482291437592)" id="text-logo"  >
<g style=""  paint-order="stroke"   >
		<g transform="matrix(1 0 0 1 0 0)" id="text-logo-path-0"  >
<linearGradient id="SVGID_825021" gradientUnits="userSpaceOnUse" gradientTransform="matrix(1 0 0 1 0 0)"  x1="0" y1="0" x2="0" y2="85">
<stop offset="0%" style="stop-color:rgb(98,39,116);stop-opacity: 1"/>
<stop offset="100%" style="stop-color:rgb(197,51,100);stop-opacity: 1"/>
</linearGradient>
<path style="stroke: none; stroke-width: 0; stroke-dasharray: none; stroke-linecap: butt; stroke-dashoffset: 0; stroke-linejoin: miter; stroke-miterlimit: 4; fill: url(#SVGID_825021); fill-rule: nonzero; opacity: 1;"  paint-order="stroke"  transform=" translate(0, 0)" d="" stroke-linecap="round" />
</g>
</g>
</g>
</svg>